<?xml version="1.0" standalone="no"?><!DOCTYPE svg PUBLIC "-//W3C//DTD SVG 1.1//EN" "http://www.w3.org/Graphics/SVG/1.1/DTD/svg11.dtd"><svg t="1583672049557" class="icon" viewBox="0 0 1024 1024" version="1.1" xmlns="http://www.w3.org/2000/svg" p-id="6266" width="80" height="80" xmlns:xlink="http://www.w3.org/1999/xlink"><defs><style type="text/css"></style></defs><path d="M919.287742 683.206194H624.194065a59.028645 59.028645 0 1 1 0-118.040775h295.126709a59.028645 59.028645 0 0 1 0 118.040775z m0-236.098065H624.194065a59.028645 59.028645 0 1 1 0-118.040774h295.126709a59.028645 59.028645 0 1 1 0 118.040774z m0-236.081548H624.194065a59.028645 59.028645 0 0 1 0-118.057291h295.126709a59.028645 59.028645 0 0 1 0 118.057291zM388.112516 978.316387H151.997935a118.040774 118.040774 0 0 1-118.040774-118.040774V683.206194c0-65.189161 52.851613-118.040774 118.040774-118.040775h236.098065c65.189161 0 118.040774 52.851613 118.040774 118.040775v177.052903c0 65.205677-52.851613 118.05729-118.040774 118.05729z m0-531.208258H151.997935a118.040774 118.040774 0 0 1-118.040774-118.040774V152.014452c0-65.205677 52.851613-118.05729 118.040774-118.057291h236.098065c65.189161 0 118.040774 52.851613 118.040774 118.040774v177.06942c0 65.189161-52.851613 118.040774-118.040774 118.040774z m236.081549 354.138839h295.126709a59.028645 59.028645 0 0 1 0 118.05729H624.177548a59.028645 59.028645 0 1 1 0-118.05729z" fill="#2c2c2c" p-id="6267"></path></svg>