<?xml version="1.0" standalone="no"?><!DOCTYPE svg PUBLIC "-//W3C//DTD SVG 1.1//EN" "http://www.w3.org/Graphics/SVG/1.1/DTD/svg11.dtd"><svg t="1583737276200" class="icon" viewBox="0 0 1336 1024" version="1.1" xmlns="http://www.w3.org/2000/svg" p-id="6976" width="104.375" height="80" xmlns:xlink="http://www.w3.org/1999/xlink"><defs><style type="text/css"></style></defs><path d="M76.8 105.244l941.511-96.71c45.511-5.69 88.178 28.444 93.867 76.8v844.8c0 48.355-36.978 85.333-85.334 85.333h-5.688L79.644 944.356C34.134 941.51 0 904.533 0 859.022V190.578c0-42.667 34.133-79.645 76.8-85.334z" fill="#ffffff" p-id="6977"></path><path d="M1291.378 921.6h-122.311v-85.333h79.644V184.889h-79.644V99.556h122.31c22.756 0 42.667 19.91 42.667 42.666v736.711c0 22.756-19.91 42.667-42.666 42.667z" fill="#ffffff" p-id="6978"></path><path d="M284.444 560.725c-22.755 0-42.666-19.91-42.666-42.666s19.91-42.667 42.666-42.667l557.512-5.689c22.755 0 42.666 19.911 42.666 42.667s-19.91 42.666-42.666 42.666l-557.512 5.69z m0-199.11c-22.755 0-42.666-19.912-42.666-42.667s19.91-42.667 42.666-42.667l557.512-5.689c22.755 0 42.666 19.911 42.666 42.667s-19.91 42.666-42.666 42.666l-557.512 5.69zM614.4 759.835H284.444c-22.755 0-42.666-19.91-42.666-42.666s19.91-42.667 42.666-42.667H614.4c22.756 0 42.667 19.911 42.667 42.667s-19.911 42.666-42.667 42.666z" fill="#ffffff" p-id="6979"></path></svg>