<?xml version="1.0" standalone="no"?><!DOCTYPE svg PUBLIC "-//W3C//DTD SVG 1.1//EN" "http://www.w3.org/Graphics/SVG/1.1/DTD/svg11.dtd"><svg t="1583672067986" class="icon" viewBox="0 0 1245 1024" version="1.1" xmlns="http://www.w3.org/2000/svg" p-id="7162" width="97.265625" height="80" xmlns:xlink="http://www.w3.org/1999/xlink"><defs><style type="text/css"></style></defs><path d="M279.13051433 833.09973426l-0.95510193-0.52811494-1.22477799-0.62924366c-20.37176774-9.42742-44.79991073-20.22569326-60.80068139-43.19309149-7.9329667-11.41628048-7.86554729-34.15894839-8.67457475-53.62055994V195.8780336a0.10112873 0.10112873 0 0 0-0.11236516-0.10112873A63.01427065 63.01427065 0 0 0 152.03450597 257.98214806v549.80176069a18.38290803 18.38290803 0 0 0 0.80902745 5.35980832 75.37441661 75.37441661 0 0 0 23.45056743 35.57474739 79.53192057 79.53192057 0 0 0 46.00221583 15.82098609c16.1356087 1.12364929 32.38358179 1.7753666 47.60903434 2.19111716 18.73123918 0.48316918 25.58550158-24.48432518 9.22516331-33.63083345z" p-id="7163"></path><path d="M345.11122025 129.57146941v-0.0674194q-3.25858423-0.91015617-6.53964055-1.7753666l-0.38204048-0.10112794c-15.60749299-4.14626676-31.46218918-7.65205418-47.339359-10.46117856a43.41782181 43.41782181 0 0 0-13.70852557-0.23596598 62.92437913 62.92437913 0 0 0-53.83405307 62.16029744v535.91345054a85.16140498 85.16140498 0 0 0 16.73114305 51.03616591l0.21349312 0.29214894a150.99603642 150.99603642 0 0 0 53.47448546 40.70982618c32.99035255 18.50650964 49.57542114 27.90022032 65.71102985 35.30507131 59.22757147 26.30463751 120.45523985 48.63155565 156.68170378 61.36250564a43.73244363 43.73244363 0 0 0 26.28216465 1.05623066 62.92437913 62.92437913 0 0 0 45.82243127-60.47482313V534.22017119l0.29214896-189.8967859a44.94598521 44.94598521 0 0 0-4.06761168-18.74247562c-5.38228199-11.80955737-12.921971-23.31572937-18.86607722-34.39491515C514.47892828 195.58588465 417.78887844 150.63989945 345.11122025 129.57146941zM960.20826024 766.70327857a114.61226157 114.61226157 0 0 0 13.58492397-23.38314877 41.14804883 41.14804883 0 0 0 3.37094939-16.36033904V179.45027594A62.85695972 62.85695972 0 0 0 914.74539655 116.64949842c-17.64129922 2.94396163-35.18146972 6.74189801-52.46320059 11.33762463l-0.38204124 0.10112873q-3.26982068 0.87644686-6.53964056 1.77536659v0.06741863c-72.68889383 21.124613-169.36770802 66.02565168-220.482529 161.55834291-7.68576351 14.32653279-17.97839393 29.32725501-22.94492536 44.82238362l0.31462185 198.26797601v310.12729543a62.84572329 62.84572329 0 0 0 62.41873707 62.80077753c34.18142126-11.87697679 101.46556103-35.95678784 166.36756264-64.74469147 16.1356087-7.40485099 32.70944083-16.79856167 65.71102985-35.30507132a150.99603642 150.99603642 0 0 0 53.46324903-40.75477114z" p-id="7164"></path><path d="M993.13119418 196.14770891a0.10112873 0.10112873 0 0 0-0.11236438 0.10112871v539.25069063c-0.78655458 19.46161157-0.74160882 42.20427947-8.67457553 53.62055994-16.00077066 23.01234398-40.45138653 33.76567148-60.80068061 43.19309149l-1.224778 0.62924365-0.9551027 0.52811573c-16.36033825 9.14650826-9.51731229 34.11400263 9.2139269 33.60835979 15.21421609-0.40451411 31.46218918-1.12364929 47.60903431-2.19111635a79.53192057 79.53192057 0 0 0 46.00221585-15.82098688 75.37441661 75.37441661 0 0 0 23.4505674-35.57474741 18.38290803 18.38290803 0 0 0 0.80902823-5.35980832V258.35295209a63.01427065 63.01427065 0 0 0-55.31727147-62.20524318z" p-id="7165"></path></svg>