<?xml version="1.0" standalone="no"?><!DOCTYPE svg PUBLIC "-//W3C//DTD SVG 1.1//EN" "http://www.w3.org/Graphics/SVG/1.1/DTD/svg11.dtd"><svg t="1583672106062" class="icon" viewBox="0 0 1136 1024" version="1.1" xmlns="http://www.w3.org/2000/svg" p-id="8795" width="88.75" height="80" xmlns:xlink="http://www.w3.org/1999/xlink"><defs><style type="text/css"></style></defs><path d="M885.69856 511.42144s0-1.23392 0 0V251.07456c0-35.41504-29.61408-64.4864-64.45056-64.4864h-235.83744c-0.17408-0.00512-0.37376-0.01536-0.57856-0.01536-4.00384 0-7.54688 1.9968-9.68192 5.0432l-49.01888 59.42272H222.0288c-36.10112 0-64.45056 29.07648-64.45056 64.45056v457.62048c0 35.3792 29.65504 64.45568 64.45056 64.45568h599.24992c36.0704 0 64.45568-29.07648 64.45568-64.45568V511.42144h-0.03584zM222.03392 276.31104h310.5536a11.8016 11.8016 0 0 0 10.29632-5.03296l50.28352-60.65152h229.39136c21.90336 0 38.67648 17.70496 38.67648 39.17824v247.71072h-34.7648V427.99616c0-21.46816-18.10432-37.90848-38.7072-37.90848H253.96736a38.38464 38.38464 0 0 0-38.37952 37.888v69.55008h-33.53088V315.52512c0.00512-21.504 18.03776-39.21408 39.97696-39.21408z m19.3024 219.97568V429.29664c0-7.6032 6.44608-12.672 12.89216-12.672h533.5296a12.79488 12.79488 0 0 1 12.89216 12.672V496.2816H241.33632zM820.0192 812.288H221.99808a38.6816 38.6816 0 0 1-38.64064-38.67648l0.00512-0.57344v-248.94976H859.9552v249.02144c0 21.46816-18.06336 39.17312-39.97184 39.17312l0.03584 0.00512z" p-id="8796"></path></svg>