<?xml version="1.0" standalone="no"?><!DOCTYPE svg PUBLIC "-//W3C//DTD SVG 1.1//EN" "http://www.w3.org/Graphics/SVG/1.1/DTD/svg11.dtd"><svg t="1583645951766" class="icon" viewBox="0 0 1024 1024" version="1.1" xmlns="http://www.w3.org/2000/svg" p-id="2814" width="80" height="80" xmlns:xlink="http://www.w3.org/1999/xlink"><defs><style type="text/css"></style></defs><path d="M502.46235723 511.12844316a32.99604434 32.99604434 0 0 1-33.61436983-32.26529707V94.43393106C468.8479874 76.55873135 483.91262158 62 502.46235723 62c18.60594697 0 33.72679159 14.61494268 33.7267916 32.43393105v384.26058106a33.05225566 33.05225566 0 0 1-33.67058028 32.43393105zM492.34431904 961.38111377a437.15543203 437.15543203 0 0 1-304.10323857-121.52887295A413.49046729 413.49046729 0 0 1 96.05451641 707.98048438a402.0233581 402.0233581 0 0 1 15.4581126-354.01889004A424.67651982 424.67651982 0 0 1 242.37258154 209.27365771a34.45753887 34.45753887 0 0 1 46.99266241 7.53231622 31.59076201 31.59076201 0 0 1-7.86958418 45.13768945 358.96548692 358.96548692 0 0 0-110.39903175 122.20340889 334.738408 334.738408 0 0 0-41.54016532 162.22586835c0 93.53563594 37.77400635 181.45013994 106.35181699 247.55465128a367.17233994 367.17233994 0 0 0 256.54846201 102.52944755 367.39718437 367.39718437 0 0 0 256.54846289-102.47323623 341.53997783 341.53997783 0 0 0 106.23939434-247.6108626 334.45735136 334.45735136 0 0 0-41.42774268-162.22586835 358.62821895 358.62821895 0 0 0-110.56766573-122.09098623 31.59076201 31.59076201 0 0 1-8.26306435-44.51936485l0.56211328-0.67453593a34.40132754 34.40132754 0 0 1 46.93645196-7.53231623 424.11440654 424.11440654 0 0 1 130.80374121 144.6317253 401.62987881 401.62987881 0 0 1 15.51432392 354.01889004 412.92835401 412.92835401 0 0 1-92.18656406 131.92796777 430.57870839 430.57870839 0 0 1-136.70592978 88.92630703A442.4955082 442.4955082 0 0 1 492.34431904 961.38111377z" p-id="2815" fill="#ffffff"></path></svg>