<?xml version="1.0" standalone="no"?><!DOCTYPE svg PUBLIC "-//W3C//DTD SVG 1.1//EN" "http://www.w3.org/Graphics/SVG/1.1/DTD/svg11.dtd"><svg t="1583645531969" class="icon" viewBox="0 0 1185 1024" version="1.1" xmlns="http://www.w3.org/2000/svg" p-id="2006" width="92.578125" height="80" xmlns:xlink="http://www.w3.org/1999/xlink"><defs><style type="text/css"></style></defs><path d="M1166.226656 720.391582v-670.428683a31.925175 31.925175 0 0 0-31.925175-31.925175H50.122525a31.925175 31.925175 0 0 0-31.925175 31.925175v670.428683z" fill="#FFFFFF" p-id="2007"></path><path d="M1184.104754 738.26968H0.957755V49.324396A49.16477 49.16477 0 0 1 50.122525 0h1085.455963a49.324396 49.324396 0 0 1 49.324396 49.324396zM36.554326 702.353858h1111.794232V49.324396a13.5682 13.5682 0 0 0-13.568199-13.5682H50.122525a13.5682 13.5682 0 0 0-13.568199 13.5682z" fill="#424953" p-id="2008"></path><path d="M72.629774 72.470148h1039.802962v592.531255H72.629774z" fill="#01DEE9" p-id="2009"></path><path d="M17.878098 719.753079v96.892907a42.300857 42.300857 0 0 0 37.512081 39.10834h1081.944194a34.000312 34.000312 0 0 0 29.690413-37.512081v-98.489166z" fill="#FFFFFF" p-id="2010"></path><path d="M1137.334373 873.632424H55.390179A60.01933 60.01933 0 0 1 0 816.645986V702.353858h1184.902884v116.367264a51.559158 51.559158 0 0 1-47.568511 54.911302z m-1101.418551-136.001247v79.014809a25.380514 25.380514 0 0 0 19.474357 21.389867h1081.944194c7.023539 0 11.971941-10.535308 11.97194-19.793608v-79.812939z" fill="#424953" p-id="2011"></path><path d="M772.589244 1005.643024c-10.216056-4.469525-22.507249-10.05643-29.850039-14.047077-12.610444-7.023539-15.962588-7.821668-19.793609-31.925175s-0.957755-78.376306-2.873266-102.479813l-254.603273-1.277007c-2.075136 24.103507 2.234762 77.578176-2.873266 103.75682s-8.14092 24.742011-20.751364 31.925175c-7.183164 3.990647-19.314731 9.417927-29.530787 13.887451H772.589244z" fill="#E5E8EC" p-id="2012"></path><path d="M766.204209 1022.403741c-9.577553-4.150273-22.8265-10.05643-31.925175-14.68558h-1.117382c-18.19735-10.05643-22.507249-17.079969-27.774902-43.418239A375.91894 375.91894 0 0 1 702.353858 895.501169v-19.793609l-219.964458-1.117381v20.272487a381.825097 381.825097 0 0 1-2.873266 68.958378c-5.267654 26.817147-11.014186 33.68106-27.934528 42.939361l-1.596259 0.957756c-8.939049 4.948402-23.305378 11.173811-30.96742 14.525954L405.290101 989.680436c12.291193-5.267654 22.347623-10.05643 27.934529-13.089321l1.596259-0.79813c7.34279-4.150273 7.34279-4.150273 10.216056-18.835853a377.515199 377.515199 0 0 0 1.91551-61.615589v-40.225721l1.436633-15.962587 287.326578 1.436632 1.277007 15.962588c0.798129 10.375682 0 24.582385 0 39.587218a371.609041 371.609041 0 0 0 2.075137 60.817459 52.836165 52.836165 0 0 0 4.309898 15.962587 34.958067 34.958067 0 0 0 5.906158 3.51177c6.225409 3.511769 15.962588 8.300546 29.05191 13.727825z" fill="#424953" p-id="2013"></path><path d="M380.228839 988.243804h424.604832v35.756196h-424.604832z" fill="#424953" p-id="2014"></path><path d="M592.45215 308.252494m-3.893122 178.419261a178.46173 178.46173 0 1 0 7.786244-356.838523 178.46173 178.46173 0 1 0-7.786244 356.838523Z" fill="#84F8FE" p-id="2015"></path><path d="M566.033359 162.020265h35.756197v66.563991h-35.756197zM454.710273 251.458644l17.878098-30.96742 57.640904 33.297958-17.878098 30.96742zM458.509369 361.999564l57.656866-33.266033 17.878099 30.96742-57.656867 33.281995zM573.855027 377.994076h35.756197v66.563991h-35.756197zM645.351458 352.7253l17.878098-30.96742 57.640904 33.31392-17.878098 30.967421zM641.584287 247.100857l57.640904-33.266032 17.878098 30.96742-57.640904 33.266032zM782.901076 499.916321l25.268776-25.284739 94.833733 94.785846-25.268776 25.300701z" fill="#484F59" p-id="2016"></path><path d="M622.062042 313.824474l278.866407 117.963523-112.057366 49.005144-48.845518 111.89774-117.963523-278.866407z" fill="#FFFFFF" p-id="2017"></path><path d="M739.706313 638.503507l-151.325331-357.561964L946.102572 430.989867l-143.663289 62.73297z m-84.122837-290.997973l84.761341 200.011224 35.117693-79.812939 79.812938-35.117693z" fill="#484F59" p-id="2018"></path></svg>