<?xml version="1.0" standalone="no"?><!DOCTYPE svg PUBLIC "-//W3C//DTD SVG 1.1//EN" "http://www.w3.org/Graphics/SVG/1.1/DTD/svg11.dtd"><svg t="1583743121191" class="icon" viewBox="0 0 1024 1024" version="1.1" xmlns="http://www.w3.org/2000/svg" p-id="8688" width="80" height="80" xmlns:xlink="http://www.w3.org/1999/xlink"><defs><style type="text/css"></style></defs><path d="M929.207 352.778c-18.876-57.79-50.39-111.914-90.361-155.213-137.7-149.188-357.163-175.253-524.862-65.45L539.598 483.75l389.609-130.972z m-689.71-241.716c-19.875 13.377-38.33 28.233-55.42 44.585-43.951 42.071-77.07 93.374-99.525 151.298l381.815 154.6-226.87-350.483zM918.688 410.76L527.755 540.178 145.958 385.636C87.728 536.8 119.645 708.5 228.478 826.365c155.578 168.61 415.395 178.63 581.538 19.768C926.078 735.218 968.966 564.88 918.688 410.76z" fill="#ffffff" p-id="8689"></path></svg>