<?xml version="1.0" standalone="no"?><!DOCTYPE svg PUBLIC "-//W3C//DTD SVG 1.1//EN" "http://www.w3.org/Graphics/SVG/1.1/DTD/svg11.dtd"><svg t="1583672088096" class="icon" viewBox="0 0 1024 1024" version="1.1" xmlns="http://www.w3.org/2000/svg" p-id="7989" width="80" height="80" xmlns:xlink="http://www.w3.org/1999/xlink"><defs><style type="text/css"></style></defs><path d="M822.613333 1011.2H189.44a106.666667 106.666667 0 0 1-111.786667-99.84V190.293333a106.666667 106.666667 0 0 1 111.786667-99.84h633.173333A106.666667 106.666667 0 0 1 938.666667 190.293333v721.066667a106.666667 106.666667 0 0 1-111.786667 99.84zM212.48 170.666667a47.786667 47.786667 0 0 0-49.493333 45.226666v668.16a47.786667 47.786667 0 0 0 49.493333 45.226667h586.24a48.64 48.64 0 0 0 51.2-45.226667V216.746667a48.64 48.64 0 0 0-51.2-46.08z m-23.04-29.866667" p-id="7990"></path><path d="M506.026667 746.666667H278.186667a42.666667 42.666667 0 0 1-42.666667-42.666667 42.666667 42.666667 0 0 1 42.666667-42.666667h227.84a42.666667 42.666667 0 0 1 42.666666 42.666667 42.666667 42.666667 0 0 1-42.666666 42.666667zM620.373333 597.333333h-341.333333a42.666667 42.666667 0 0 1-42.666667-42.666666 42.666667 42.666667 0 0 1 42.666667-42.666667h341.333333a42.666667 42.666667 0 0 1 42.666667 42.666667 42.666667 42.666667 0 0 1-42.666667 42.666666z m114.346667-153.6H278.186667a42.666667 42.666667 0 0 1-42.666667-42.666666 42.666667 42.666667 0 0 1 42.666667-42.666667h456.533333a42.666667 42.666667 0 0 1 42.666667 42.666667 43.52 43.52 0 0 1-42.666667 39.253333z m-85.333333-230.4A43.52 43.52 0 0 1 605.866667 170.666667V64.853333a42.666667 42.666667 0 0 1 42.666666-42.666666 42.666667 42.666667 0 0 1 42.666667 42.666666V170.666667a42.666667 42.666667 0 0 1-42.666667 39.253333z m-285.013334 0a42.666667 42.666667 0 0 1-42.666666-42.666666V64.853333a42.666667 42.666667 0 1 1 85.333333 0V170.666667a42.666667 42.666667 0 0 1-43.52 39.253333z" p-id="7991"></path></svg>