<?xml version="1.0" standalone="no"?><!DOCTYPE svg PUBLIC "-//W3C//DTD SVG 1.1//EN" "http://www.w3.org/Graphics/SVG/1.1/DTD/svg11.dtd"><svg t="1583672117208" class="icon" viewBox="0 0 1024 1024" version="1.1" xmlns="http://www.w3.org/2000/svg" p-id="9614" width="80" height="80" xmlns:xlink="http://www.w3.org/1999/xlink"><defs><style type="text/css"></style></defs><path d="M367.023158 274.485895h233.795368c72.326737 0 127.514947-153.6 127.514948-153.6 0-45.972211-4.688842-80.842105-85.045895-83.267369-80.303158-2.479158-99.543579 54.972632-157.264842 54.972632-59.122526 0-88.710737-45.163789-161.522526-54.972632-72.757895-9.862737-84.992 37.295158-84.992 83.267369 0 0 55.134316 153.6 127.514947 153.6z m246.568421 47.427368H367.023158C93.992421 321.967158 26.947368 847.117474 26.947368 847.117474c0 68.985263 57.128421 138.293895 127.514948 138.293894h671.63621c70.440421 0 127.514947-69.308632 127.514948-138.293894 0 0-67.045053-525.096421-340.07579-525.096421z m28.025263 403.671579c16.384 0 29.749895 13.042526 29.749895 29.103158a29.480421 29.480421 0 0 1-29.80379 29.210947H520.677053v76.530527a29.480421 29.480421 0 0 1-29.749895 29.210947 29.480421 29.480421 0 0 1-29.80379-29.210947v-76.530527H339.536842a29.480421 29.480421 0 0 1-29.803789-29.157052c0-16.168421 13.312-29.210947 29.803789-29.210948h121.640421v-37.025684H339.536842a29.480421 29.480421 0 0 1-29.803789-29.103158c0-16.168421 13.312-29.264842 29.803789-29.264842h82.243369L337.488842 483.651368a28.833684 28.833684 0 0 1 10.886737-39.882105 30.127158 30.127158 0 0 1 40.690526 10.671158l101.429895 175.696842h5.12l101.322105-175.696842a30.073263 30.073263 0 0 1 40.690527-10.617263c14.282105 8.084211 19.132632 25.869474 10.940631 39.82821L564.277895 630.137263h77.231158c16.437895 0 29.803789 13.096421 29.803789 29.210948a29.480421 29.480421 0 0 1-29.803789 29.157052H520.677053v37.025684h120.885894z" fill="#2c2c2c" p-id="9615"></path></svg>