<?xml version="1.0" standalone="no"?><!DOCTYPE svg PUBLIC "-//W3C//DTD SVG 1.1//EN" "http://www.w3.org/Graphics/SVG/1.1/DTD/svg11.dtd"><svg t="1583672033815" class="icon" viewBox="0 0 1035 1024" version="1.1" xmlns="http://www.w3.org/2000/svg" p-id="5471" width="80.859375" height="80" xmlns:xlink="http://www.w3.org/1999/xlink"><defs><style type="text/css"></style></defs><path d="M1007.225965 326.252529c-25.90602-11.721973-432.139138-195.529255-432.139138-195.529255s-44.61615-20.965497-63.107293-20.965497-63.107293 20.965497-63.107293 20.965497S42.638099 314.530556 16.733103 326.252529c-25.90602 11.721973 0 26.950815 0 26.950815S364.514971 510.988973 427.796226 539.194362c51.813063 23.093974 63.389726 22.572088 84.183308 22.572088 20.791535 0 32.368198 0.522909 84.181261-22.572088 43.636846-19.448958 222.547609-100.512205 329.426825-148.968823l0 135.587048-35.026748 35.026748 48.841382 48.840358 48.841382-48.840358-35.026748-35.025725L953.216887 377.698225c32.835849-14.890128 54.009078-24.495904 54.009078-24.495904S1033.129938 337.973478 1007.225965 326.252529z" p-id="5472"></path><path d="M511.979534 606.2772c-20.792559 0-32.370245 0.523933-84.183308-22.571065-31.450293-14.018272-133.174092-60.043514-227.550553-102.798271l0 310.013683 0 1.721201c94.377484 42.754756 196.10026 88.779999 227.550553 102.798271 51.813063 23.093974 63.389726 22.571065 84.183308 22.571065 20.791535 0 32.368198 0.523933 84.181261-22.571065 31.450293-14.018272 133.174092-60.042491 227.549529-102.796224l0-1.723248L823.710324 480.908888C729.333864 523.663644 627.611088 569.687864 596.160795 583.706135 544.347732 606.801133 532.771069 606.2772 511.979534 606.2772z" p-id="5473"></path></svg>