<?xml version="1.0" standalone="no"?><!DOCTYPE svg PUBLIC "-//W3C//DTD SVG 1.1//EN" "http://www.w3.org/Graphics/SVG/1.1/DTD/svg11.dtd"><svg t="1583672023077" class="icon" viewBox="0 0 1024 1024" version="1.1" xmlns="http://www.w3.org/2000/svg" p-id="4635" width="80" height="80" xmlns:xlink="http://www.w3.org/1999/xlink"><defs><style type="text/css"></style></defs><path d="M298.24 598.18666667c-85.76 0-155.41333333-69.76-155.41333333-155.41333334s69.76-155.41333333 155.41333333-155.41333333S453.65333333 357.01333333 453.65333333 442.66666667s-69.76 155.52-155.41333333 155.52z m0-259.84c-57.49333333 0-104.32 46.82666667-104.32 104.32s46.82666667 104.32 104.32 104.32 104.32-46.82666667 104.32-104.32-46.82666667-104.32-104.32-104.32zM559.46666667 928.64h-51.09333334V774.72c0-60.16-48.96-109.12-109.12-109.12H197.12c-60.16 0-109.12 48.96-109.12 109.12v153.92H36.90666667V774.72C36.90666667 686.29333333 108.8 614.4 197.12 614.4h202.02666667c88.32 0 160.21333333 71.89333333 160.21333333 160.21333333v154.02666667z" fill="#515151" p-id="4636"></path><path d="M987.09333333 817.81333333H667.52v-51.09333333h268.48V136H256.42666667v115.09333333h-51.09333334V84.90666667h781.76z" fill="#515151" p-id="4637"></path><path d="M510.62933333 918.1184l196.9792-439.3632 46.62293334 20.9024-196.9792 439.3632z" fill="#515151" p-id="4638"></path></svg>