<?xml version="1.0" standalone="no"?><!DOCTYPE svg PUBLIC "-//W3C//DTD SVG 1.1//EN" "http://www.w3.org/Graphics/SVG/1.1/DTD/svg11.dtd"><svg t="1583737304946" class="icon" viewBox="0 0 1024 1024" version="1.1" xmlns="http://www.w3.org/2000/svg" p-id="7822" width="80" height="80" xmlns:xlink="http://www.w3.org/1999/xlink"><defs><style type="text/css"></style></defs><path d="M721 831.3c-51.8 0-93.9-42.1-93.9-93.9 0-6.1-5-11-11.1-11s-11.1 5-11.1 11c0 51.8-42.1 93.9-93.9 93.9s-94-42.2-94-94c0-6.1-5-11-11.1-11s-11.1 5-11.1 11c0 51.8-42.1 93.9-93.9 93.9S207 789.1 207 737.3c0-0.9 0.1-1.8 0.2-2.6-0.1-0.8-0.2-1.7-0.2-2.6V444.4c0-167.6 136.3-304 304-304s304 136.4 304 304v292.9c-0.1 51.8-42.2 94-94 94zM616 695.9c22.9 0 41.5 18.6 41.5 41.4 0 35 28.5 63.6 63.6 63.6 35 0 63.6-28.5 63.6-63.6V444.4c0-150.8-122.7-273.6-273.6-273.6S237.4 293.6 237.4 444.4v287.7c0 0.9-0.1 1.8-0.2 2.6 0.1 0.8 0.2 1.7 0.2 2.6 0 35 28.5 63.6 63.6 63.6s63.6-28.5 63.6-63.6c0-22.9 18.6-41.4 41.5-41.4s41.5 18.6 41.5 41.4c0 35 28.5 63.6 63.6 63.6s63.6-28.5 63.6-63.6c-0.3-22.8 18.3-41.4 41.2-41.4z" fill="#ffffff" p-id="7823"></path><path d="M397 478.3c-25.1 0-45.6-20.5-45.6-45.6s20.5-45.6 45.6-45.6 45.6 20.5 45.6 45.6-20.5 45.6-45.6 45.6z m0-60.8c-8.4 0-15.2 6.8-15.2 15.2 0 8.4 6.8 15.2 15.2 15.2 8.4 0 15.2-6.8 15.2-15.2 0-8.4-6.8-15.2-15.2-15.2zM625 478.3c-25.1 0-45.6-20.5-45.6-45.6s20.5-45.6 45.6-45.6 45.6 20.5 45.6 45.6-20.5 45.6-45.6 45.6z m0-60.8c-8.4 0-15.2 6.8-15.2 15.2 0 8.4 6.8 15.2 15.2 15.2 8.4 0 15.2-6.8 15.2-15.2 0-8.4-6.8-15.2-15.2-15.2z" fill="#ffffff" p-id="7824"></path></svg>