<?xml version="1.0" standalone="no"?><!DOCTYPE svg PUBLIC "-//W3C//DTD SVG 1.1//EN" "http://www.w3.org/Graphics/SVG/1.1/DTD/svg11.dtd"><svg t="1583672003020" class="icon" viewBox="0 0 1024 1024" version="1.1" xmlns="http://www.w3.org/2000/svg" p-id="3715" width="80" height="80" xmlns:xlink="http://www.w3.org/1999/xlink"><defs><style type="text/css"></style></defs><path d="M619.994 552.685c-187.4 0-339.319 126.658-339.319 282.899 0 27.406 4.68 53.9 13.405 78.96 9.35 26.858 34.557 44.949 62.998 44.949h525.84c28.041 0 53.294-17.483 62.63-43.924 8.955-25.362 13.764-52.205 13.764-79.985 0-156.242-151.918-282.9-339.318-282.9zM420.11 325.398c0 110.392 89.491 199.883 199.884 199.883s199.882-89.49 199.882-199.883-89.491-199.883-199.883-199.883-199.883 89.49-199.883 199.883z m-46.604 302.286c58.05-48.399 132.862-77.636 213.418-83.934a254.795 254.795 0 0 0-11.44-12.996c-48.697-10.545-91.163-38.009-120.897-75.922-34.248-11.606-71.694-18.016-110.941-18.016-162.83 0-294.83 110.051-294.83 245.807 0 23.813 4.066 46.833 11.647 68.607 8.125 23.337 30.027 39.055 54.738 39.055H274.58c4.398-23.847 12.288-47.082 23.635-69.45 17.724-34.932 43.055-66.274 75.292-93.151z m-29.86-214.679c28.028 0 54.501-6.648 77.94-18.44-7.576-21.671-11.71-44.944-11.71-69.168 0-69.515 33.942-131.243 86.114-169.512-29.517-53.775-86.67-90.232-152.344-90.232-95.919 0-173.676 77.757-173.676 173.676 0 95.92 77.757 173.676 173.676 173.676z" fill="" p-id="3716"></path></svg>